<?xml version="1.0" encoding="UTF-8"?>
<svg id="Laag_2" data-name="Laag 2" xmlns="http://www.w3.org/2000/svg" viewBox="0 0 62.17 9.7">
  <defs>
    <style>
      .cls-1 {
        fill: #5daa68;
      }

      .cls-1, .cls-2 {
        stroke-width: 0px;
      }

      .cls-2 {
        fill: #d6d6d6;
      }
    </style>
  </defs>
  <g id="Laag_1-2" data-name="Laag 1">
    <g>
      <path class="cls-1" d="M4.64.37c.24-.49.64-.49.89,0l.84,1.69c.24.49.89.96,1.43,1.04l1.87.27c.54.08.67.46.27.84l-1.35,1.32c-.39.38-.64,1.14-.55,1.68l.32,1.86c.09.54-.23.78-.72.52l-1.67-.88c-.49-.26-1.28-.26-1.77,0l-1.67.88c-.49.26-.81.02-.72-.52l.32-1.86c.09-.54-.15-1.3-.55-1.68L.23,4.22c-.39-.38-.27-.76.27-.84l1.87-.27c.54-.08,1.19-.55,1.43-1.04l.84-1.69Z"/>
      <path class="cls-1" d="M17.64.37c.24-.49.64-.49.89,0l.84,1.69c.24.49.89.96,1.43,1.04l1.87.27c.54.08.67.46.27.84l-1.35,1.32c-.39.38-.64,1.14-.55,1.68l.32,1.86c.09.54-.23.78-.72.52l-1.67-.88c-.49-.26-1.28-.26-1.77,0l-1.67.88c-.49.26-.81.02-.72-.52l.32-1.86c.09-.54-.15-1.3-.55-1.68l-1.35-1.32c-.39-.38-.27-.76.27-.84l1.87-.27c.54-.08,1.19-.55,1.43-1.04l.84-1.69Z"/>
      <path class="cls-1" d="M43.64.37c.24-.49.64-.49.89,0l.84,1.69c.24.49.89.96,1.43,1.04l1.87.27c.54.08.67.46.27.84l-1.35,1.32c-.39.38-.64,1.14-.55,1.68l.32,1.86c.09.54-.23.78-.72.52l-1.67-.88c-.49-.26-1.28-.26-1.77,0l-1.67.88c-.49.26-.81.02-.72-.52l.32-1.86c.09-.54-.15-1.3-.55-1.68l-1.35-1.32c-.39-.38-.27-.76.27-.84l1.87-.27c.54-.08,1.19-.55,1.43-1.04l.84-1.69Z"/>
      <path class="cls-1" d="M30.64.37c.24-.49.64-.49.89,0l.84,1.69c.24.49.89.96,1.43,1.04l1.87.27c.54.08.67.46.27.84l-1.35,1.32c-.39.38-.64,1.14-.55,1.68l.32,1.86c.09.54-.23.78-.72.52l-1.67-.88c-.49-.26-1.28-.26-1.77,0l-1.67.88c-.49.26-.81.02-.72-.52l.32-1.86c.09-.54-.15-1.3-.55-1.68l-1.35-1.32c-.39-.38-.27-.76.27-.84l1.87-.27c.54-.08,1.19-.55,1.43-1.04l.84-1.69Z"/>
      <path class="cls-2" d="M56.64.37c.24-.49.64-.49.89,0l.84,1.69c.24.49.89.96,1.43,1.04l1.87.27c.54.08.67.46.27.84l-1.35,1.32c-.39.38-.64,1.14-.55,1.68l.32,1.86c.09.54-.23.78-.72.52l-1.67-.88c-.49-.26-1.28-.26-1.77,0l-1.67.88c-.49.26-.81.02-.72-.52l.32-1.86c.09-.54-.15-1.3-.55-1.68l-1.35-1.32c-.39-.38-.27-.76.27-.84l1.87-.27c.54-.08,1.19-.55,1.43-1.04l.84-1.69Z"/>
    </g>
  </g>
</svg>