<?xml version="1.0" encoding="UTF-8"?>
<svg id="Laag_2" data-name="Laag 2" xmlns="http://www.w3.org/2000/svg" viewBox="0 0 375 1056.73">
  <defs>
    <style>
      .cls-1 {
        fill: #2e4337;
      }

      .cls-1, .cls-2, .cls-3, .cls-4 {
        stroke-width: 0px;
      }

      .cls-2 {
        fill: #191c16;
      }

      .cls-3 {
        fill: #e4f8e0;
      }

      .cls-4 {
        fill: #89b56b;
      }
    </style>
  </defs>
  <g id="Laag_1-2" data-name="Laag 1">
    <rect class="cls-1" width="375" height="1056.73"/>
    <path class="cls-4" d="M52.4,340.03c-7.16.82-14.62,120.57,17.34,129.81,18,5.2,49.4-24.39,46.09-44.71-2.67-16.39-26.26-16.53-46.09-44.71-15.39-21.87-14.5-40.71-17.34-40.38Z"/>
    <g>
      <path class="cls-2" d="M266.46,636.34c1.78-.84,3.74,2.51,4.19,3.85,1.78,1.04,3.38,2.33,4.92,3.7,4.8-3.54,8.92-2.27,10.26,3.7,8.56,2.99,15.61,7.7,21.9,14.21,4.01.44,9.97,4.54,7.76,8.98,7.51,5.68,5.4,17.26-3.89,19.56-4.99,1.24-10.42-1.77-12.41-6.41-.36-.13-1.13,3.41-5.41,5.17-4.17.99-14.25,5.19-17.22,5.84-3.35.74-5.49-.75-5.79-.72-.2.02-1.1.54-1.15.74-.14.49,1.22,5.41-2.69,9.53-7.51,7.92-21.27,1.25-18.52-10.47-2.94-1.43-2.77-5.92-2.33-8.72.87-5.46,4.64-11.38,8.41-15.33-4.26-1.8-4.37-7.69-.33-9.26,1.39-.54,8.52-2.29,10.05-2.4,6.55-.45,12.71,5.22,6.76,10.88l-.11.38c.52,1.81,1.13,6.86,1.42,7.77.37,1.18,1.33,1.64,2.57,1.4.36-.07,6.45-2.17,6.86-2.36,3.72-1.77,4.28-6.31,1.94-9.46-1.49-1.99-6.93-3.96-9.03-8.16-.92-1.85-1.51-4.28-.15-6.07-1.87.15-5.78,3.14-6.91.54-1.59-3.69,3.77-3.66,6.14-4.88l.09-2.7q-1.38-1.18-2.75-2.35c-3.48,1.72-6.84-5.86-4.57-6.92Z"/>
      <path class="cls-3" d="M284.72,649.86c7.5,2.28,14.05,6.75,19.82,11.97-1.15.49-2.59.97-3.73,1.72-1.15.76-2.09,1.99-2.99,3.02-1.71-7.82-9.29-13.62-17.05-14.52.03-.23,2.52-.54,3.96-2.19Z"/>
      <path class="cls-4" d="M256.78,692.53c3.77-1.8,8.09,1.48,6.74,5.59-1.61,4.89-8.96,4.28-9.34-1.15-.11-1.64,1.11-3.73,2.6-4.44Z"/>
      <path class="cls-4" d="M277.99,645c4.09-1.67,6.21,1.52,4.89,3.46-.64.94-6.02,3.72-7.25.8-.79-1.86.71-3.59,2.37-4.26Z"/>
      <path class="cls-4" d="M308.1,675.2c3.77-1.8,8.09,1.48,6.74,5.59-1.61,4.89-8.96,4.28-9.34-1.15-.11-1.64,1.11-3.73,2.6-4.44Z"/>
    </g>
    <path class="cls-4" d="M350.57,163.15c12.83,59.12-65.68,116.26-70.72,112.51-3.37-2.5,27.44-31.18,18.55-60.34-8.91-29.21-52.18-27.97-52.18-52.18,0-28.82,23.36-52.18,52.18-52.18s47.61,31.16,52.18,52.18Z"/>
  </g>
</svg>