<?xml version="1.0" encoding="UTF-8"?>
<svg id="Laag_1" data-name="Laag 1" xmlns="http://www.w3.org/2000/svg" viewBox="0 0 248 343">
  <defs>
    <style>
      .cls-1 {
        fill: none;
        stroke: #ffff;
        stroke-miterlimit: 10;
      }
    </style>
  </defs>
  <path class="cls-1" d="M18.33,243.27C59,169,115,102,192,61l3-3c18-10,35-17,53-25,3-1,5-1,7.57-2.36"/>
  <path class="cls-1" d="M32.09,262.52c10.6-19.58,22.24-38.61,35.05-56.82s25.4-33.86,39.72-49.43,28.52-28.97,44.24-41.83,31.94-24.24,49.15-34.5c17.21-10.26,35.18-19.23,53.7-26.85,2.35-.97,4.71-1.91,7.08-2.84"/>
  <path class="cls-1" d="M-5.82,195.91c11.82-17.91,25.82-34.91,40.82-51.91,20-21,39-40,63-58,1-1,2-3,3-4C147,47,193,18,244.37-5.94"/>
  <path class="cls-1" d="M7.94,215.17c11.16-17.49,23.39-34.3,36.61-50.28,13.07-15.8,27.11-30.79,42-44.88,14.93-14.14,30.72-27.38,47.19-39.69,16.74-12.51,34.18-24.07,52.17-34.7s37.51-20.86,56.96-29.9c2.43-1.13,4.88-2.25,7.32-3.36"/>
  <path class="cls-1" d="M75.09,330.08c41.91-92.08,106.91-182.08,203.54-220.82"/>
  <path class="cls-1" d="M88.85,349.34c25.15-50.34,54.15-96.34,91.15-139.34,12-14,25-25,39-38,1-1,3-1,4-2,19-17,40-29,61.67-39.56"/>
  <path class="cls-1" d="M50.94,282.72c42.06-93.72,117.06-176.72,215.42-213.07"/>
  <path class="cls-1" d="M64.7,301.98c39.3-92.98,111.3-175.98,207.54-212.38"/>
  <path class="cls-1" d="M158.64,342.62c-36.64-59.62-56.64-129.62-60.64-199.62-1-33,0-67,4.38-100.26"/>
  <path class="cls-1" d="M176.22,328.27c-10-16.87-18.9-34.4-26.5-52.48-7.48-17.78-13.71-36.08-18.59-54.74-4.92-18.81-8.46-37.97-10.65-57.29s-3.04-39.53-2.55-59.34c.51-20.64,2.42-41.24,5.54-61.65.4-2.61.82-5.23,1.26-7.83"/>
  <path class="cls-1" d="M129.56,366.78c-7.56-11.78-11.56-24.78-18.56-36.78-1-2,0-3-1-5C71,239,56,146,50.15,52.63"/>
  <path class="cls-1" d="M144.67,354.07c-53.67-93.07-69.67-203.07-72.18-309.24"/>
  <path class="cls-1" d="M227.88,287.33c-9.88-16.33-18.88-32.33-25.88-49.33-3-8-6-17-9-25-21-66-17-137,8.63-200.38"/>
  <path class="cls-1" d="M248.42,272.41c-27.42-44.41-45.42-94.41-48.42-146.41-2-42,8-83,23.97-121.18"/>
  <path class="cls-1" d="M192.78,314.74c-54.78-85.74-65.78-193.74-43.38-292.22"/>
  <path class="cls-1" d="M209.04,301.66c-51.04-84.66-63.04-190.66-37.29-286.94"/>
</svg>