<?xml version="1.0" encoding="UTF-8"?>
<svg id="Laag_2" data-name="Laag 2" xmlns="http://www.w3.org/2000/svg" viewBox="0 0 375 781.95">
  <defs>
    <style>
      .cls-1 {
        fill: #2e4337;
      }

      .cls-1, .cls-2 {
        stroke-width: 0px;
      }

      .cls-2 {
        fill: #89b56b;
      }
    </style>
  </defs>
  <g id="Laag_1-2" data-name="Laag 1">
    <rect class="cls-1" width="375" height="781.95"/>
    <path class="cls-2" d="M326.06,115.3c12.54,57.78-64.2,113.64-69.13,109.98-3.29-2.45,26.82-30.48,18.13-58.98-8.71-28.55-51-27.34-51-51,0-28.17,22.83-51,51-51s46.54,30.45,51,51Z"/>
    <path class="cls-2" d="M18.39,286.73c-7,.81-14.29,117.85,16.95,126.88,17.6,5.08,48.28-23.84,45.05-43.7-2.61-16.02-25.66-16.15-45.05-43.7-15.04-21.38-14.18-39.79-16.95-39.47Z"/>
    <path class="cls-2" d="M334.19,742.48c.26,19.2-20.88,31.87-39.85,28.82-18.96-3.04-31.87-20.88-28.82-39.85,3.04-18.96,36.15-9.98,39.85-28.82,16.18-82.61,26.25-152.04,28.82,39.85Z"/>
  </g>
</svg>