<?xml version="1.0" encoding="UTF-8"?>
<svg id="Laag_1" data-name="Laag 1" xmlns="http://www.w3.org/2000/svg" viewBox="0 0 406 150">
  <defs>
    <style>
      .cls-1, .cls-2 {
        stroke-width: 0px;
      }

      .cls-2 {
        fill: none;
      }
    </style>
  </defs>
  <path class="cls-2" d="M74.62,59.37c-.54-.46-1.04-.81-1.5-1.04-.47-.23-1.09-.45-1.85-.64-.77-.2-2.35-.3-4.75-.3h-6.9v14.6h7c6.46,0,9.7-2.48,9.7-7.45,0-2.52-.57-4.24-1.7-5.17Z"/>
  <polygon class="cls-2" points="243.22 74.08 246.12 79.08 250.52 87.28 249.52 82.28 249.52 78.98 249.52 74.08 249.52 50.47 236.81 63.18 243.22 74.08"/>
  <path class="cls-2" d="M133.72,56.08c-7.47,0-11.2,7.23-11.2,21.7s3.73,21.7,11.2,21.7c3.14,0,5.62-1.26,7.47-3.73l-11.41-11.88,14.5-16.24c-1.5-7.69-5.01-11.56-10.55-11.56Z"/>
  <path class="cls-1" d="M83.32,43.18c-.73-.27-1.54-.5-2.4-.7-.87-.2-1.7-.33-2.5-.4l-6.8-.3h-32.3v72.1h20.3v-26.1h9.38c8.84,0,15.64-2.05,20.39-6.15,4.75-4.1,7.13-9.95,7.13-17.55,0-5.13-1.2-9.6-3.6-13.4s-5.6-6.3-9.6-7.5ZM66.62,71.98h-7v-14.6h6.9c2.4,0,3.98.1,4.75.3.77.2,1.38.41,1.85.64.46.23.96.58,1.5,1.04,1.13.93,1.7,2.65,1.7,5.17,0,4.97-3.23,7.45-9.7,7.45Z"/>
  <path class="cls-1" d="M133.72,99.48c-7.47,0-11.2-7.23-11.2-21.7s3.73-21.7,11.2-21.7c5.54,0,9.05,3.86,10.55,11.56h.01s22.76,22.74,22.76,22.74c.85-3.63,1.28-7.61,1.28-11.95,0-6.72-.8-12.43-2.4-17.13-1.6-4.69-4.77-9.37-9.5-14.03-4.73-4.66-12.3-6.99-22.7-6.99-10.93,0-19.4,3.28-25.4,9.84s-9,15.8-9,27.71,3.02,21.14,9.05,27.66c6.03,6.52,14.48,9.79,25.35,9.79,8.34,0,15.26-1.9,20.77-5.67l-13.31-13.85c-1.84,2.47-4.32,3.73-7.47,3.73Z"/>
  <polygon class="cls-1" points="194.32 113.88 194.32 105.67 186.11 113.88 194.32 113.88"/>
  <polygon class="cls-1" points="194.32 41.78 174.12 41.78 174.12 94.52 194.32 74.18 194.32 41.78"/>
  <polygon class="cls-1" points="201.52 113.88 220.92 113.88 220.92 80.38 220.92 79.07 201.52 98.47 201.52 113.88"/>
  <polygon class="cls-1" points="224.22 41.78 201.52 41.78 201.52 66.93 225.07 43.22 224.22 41.78"/>
  <polygon class="cls-1" points="249.52 50.47 249.52 74.08 249.52 78.98 249.52 82.28 250.52 87.28 246.12 79.08 243.22 74.08 236.81 63.18 224.53 75.46 227.42 80.28 247.12 113.88 268.92 113.88 268.92 41.78 258.21 41.78 249.52 50.47"/>
  <polygon class="cls-1" points="271.72 41.78 271.72 57.88 292.12 57.88 292.12 113.88 312.32 113.88 312.32 57.88 332.72 57.88 332.72 41.78 271.72 41.78"/>
</svg>