<?xml version="1.0" encoding="UTF-8"?>
<svg id="Laag_2" data-name="Laag 2" xmlns="http://www.w3.org/2000/svg" viewBox="0 0 130.97 130.97">
  <defs>
    <style>
      .cls-1 {
        fill: #191c16;
      }

      .cls-1, .cls-2, .cls-3 {
        stroke-width: 0px;
      }

      .cls-2 {
        fill: #e4f8e0;
      }

      .cls-3 {
        fill: #89b56b;
      }
    </style>
  </defs>
  <g id="Laag_1-2" data-name="Laag 1">
    <g>
      <path class="cls-3" d="M118,71.97c-23.04,23.04-26.42,59-59,59S0,104.56,0,71.97,35.96,36.01,59,12.97c39.33-39.33,98.33,19.67,59,59Z"/>
      <g>
        <path class="cls-1" d="M44.15,29.15c1.85-.87,3.89,2.61,4.36,4,1.85,1.08,3.51,2.43,5.11,3.84,4.99-3.68,9.28-2.36,10.67,3.85,8.9,3.11,16.23,8.01,22.78,14.78,4.17.45,10.36,4.72,8.07,9.34,7.81,5.9,5.62,17.95-4.05,20.34-5.19,1.28-10.84-1.84-12.91-6.66-.37-.14-1.17,3.55-5.62,5.37-4.33,1.03-14.82,5.39-17.91,6.07-3.48.77-5.71-.78-6.02-.75-.21.02-1.14.56-1.2.77-.14.51,1.27,5.62-2.8,9.91-7.82,8.24-22.12,1.31-19.26-10.89-3.06-1.48-2.88-6.16-2.42-9.07.91-5.68,4.83-11.84,8.75-15.95-4.43-1.87-4.54-8-.34-9.63,1.44-.56,8.86-2.38,10.46-2.49,6.82-.47,13.22,5.43,7.03,11.32l-.12.39c.54,1.88,1.17,7.13,1.47,8.08.39,1.23,1.38,1.71,2.67,1.45.37-.07,6.7-2.25,7.13-2.46,3.87-1.84,4.46-6.57,2.01-9.84-1.55-2.07-7.21-4.12-9.39-8.48-.96-1.92-1.57-4.45-.16-6.31-1.95.16-6.01,3.27-7.18.56-1.66-3.84,3.92-3.81,6.38-5.08l.09-2.81q-1.43-1.22-2.86-2.45c-3.62,1.79-7.11-6.09-4.76-7.2Z"/>
        <path class="cls-2" d="M63.15,43.21c7.8,2.37,14.61,7.02,20.61,12.45-1.2.51-2.69,1.01-3.88,1.79-1.19.79-2.17,2.07-3.11,3.14-1.78-8.13-9.66-14.17-17.74-15.1.03-.24,2.62-.56,4.11-2.28Z"/>
        <path class="cls-3" d="M34.09,87.58c3.92-1.87,8.41,1.54,7.01,5.82-1.67,5.09-9.32,4.45-9.71-1.2-.12-1.71,1.16-3.88,2.7-4.62Z"/>
        <path class="cls-3" d="M56.15,38.15c4.25-1.74,6.45,1.58,5.08,3.6-.66.98-6.26,3.86-7.54.83-.82-1.93.74-3.73,2.46-4.44Z"/>
        <path class="cls-3" d="M87.46,69.56c3.92-1.87,8.41,1.54,7.01,5.82-1.67,5.09-9.32,4.45-9.71-1.2-.12-1.71,1.16-3.88,2.7-4.62Z"/>
      </g>
    </g>
  </g>
</svg>